
<svg width="142" height="33" viewBox="0 0 142 33" fill="none" xmlns="http://www.w3.org/2000/svg">
<path d="M0 6.7373V32.6084H3.75838V13.8746H4.00127L11.7226 32.5705H14.8418L22.5631 13.8872H22.806V32.6084H26.5643V6.7373H21.7705L13.4356 26.848H13.1288L4.79385 6.7373H0Z" fill="white"/>
<path d="M41.1313 33C45.4138 33 48.4435 30.9157 49.3128 27.7576L45.695 27.1133C45.0047 28.945 43.3428 29.8798 41.1696 29.8798C37.897 29.8798 35.6982 27.7828 35.596 24.0436H49.5557V22.7046C49.5557 15.6936 45.3115 12.9524 40.8628 12.9524C35.3914 12.9524 31.7864 17.0706 31.7864 23.033C31.7864 29.0587 35.3403 33 41.1313 33ZM35.6088 21.214C35.7622 18.4601 37.782 16.0726 40.8884 16.0726C43.8542 16.0726 45.7973 18.2454 45.8101 21.214H35.6088Z" fill="white"/>
<path d="M68.5105 17.9422C67.7179 14.9231 65.3274 12.9524 61.0832 12.9524C56.6473 12.9524 53.5025 15.2641 53.5025 18.7001C53.5025 21.454 55.1899 23.2857 58.8716 24.0942L62.1954 24.8142C64.0873 25.2311 64.9694 26.0648 64.9694 27.2775C64.9694 28.7808 63.3459 29.9556 60.8403 29.9556C58.552 29.9556 57.0819 28.9829 56.6217 27.0754L52.9272 27.6312C53.5664 31.0672 56.4555 33 60.8659 33C65.6086 33 68.894 30.5114 68.894 26.9996C68.894 24.2584 67.1298 22.5657 63.5249 21.7445L60.4057 21.0371C58.2452 20.5318 57.312 19.8118 57.3248 18.498C57.312 17.0074 58.9483 15.9463 61.1215 15.9463C63.4993 15.9463 64.5988 17.2474 65.0462 18.5486L68.5105 17.9422Z" fill="white"/>
<path d="M82.2625 13.2052H78.2357V8.5564H74.4134V13.2052H71.5371V16.2369H74.4134V27.6945C74.4006 31.2189 77.1235 32.9243 80.1405 32.8611C81.3549 32.8485 82.1731 32.6211 82.6205 32.4569L81.9302 29.3367C81.6745 29.3872 81.2015 29.5009 80.5879 29.5009C79.3479 29.5009 78.2357 29.0967 78.2357 26.9113V16.2369H82.2625V13.2052Z" fill="white"/>
<path d="M94.5508 33C100.086 33 103.704 28.9955 103.704 22.9951C103.704 16.9569 100.086 12.9524 94.5508 12.9524C89.0155 12.9524 85.3977 16.9569 85.3977 22.9951C85.3977 28.9955 89.0155 33 94.5508 33ZM94.5636 29.8293C90.9458 29.8293 89.2584 26.7091 89.2584 22.9825C89.2584 19.2686 90.9458 16.1105 94.5636 16.1105C98.1558 16.1105 99.8432 19.2686 99.8432 22.9825C99.8432 26.7091 98.1558 29.8293 94.5636 29.8293Z" fill="white"/>
<path d="M107.176 8.89324H108.233V5.5246H110.142C110.219 5.5246 110.291 5.5246 110.364 5.52039L112.205 8.89324H113.432L111.459 5.33091C112.571 4.95615 113.091 4.05925 113.091 2.91391C113.091 1.3896 112.171 0.269531 110.125 0.269531H107.176V8.89324ZM108.233 4.58139V1.19591H110.091C111.506 1.19591 112.051 1.87805 112.051 2.91391C112.051 3.94977 111.506 4.58139 110.108 4.58139H108.233Z" fill="white"/>
<path d="M118.84 6.24894C118.84 7.46165 117.903 8.01747 117.153 8.01747C116.318 8.01747 115.721 7.41112 115.721 6.4679V2.42554H114.716V6.53527C114.716 8.18591 115.602 8.97754 116.829 8.97754C117.818 8.97754 118.465 8.4554 118.772 7.79851H118.84V8.89332H119.846V2.42554H118.84V6.24894Z" fill="white"/>
<path d="M126.324 3.87404C126.009 2.95609 125.301 2.34131 124.006 2.34131C122.625 2.34131 121.603 3.1161 121.603 4.2109C121.603 5.10359 122.14 5.70153 123.341 5.97944L124.432 6.23209C125.093 6.38368 125.404 6.69527 125.404 7.14162C125.404 7.69744 124.807 8.15221 123.87 8.15221C123.047 8.15221 122.532 7.80271 122.353 7.10793L121.398 7.34374C121.633 8.44275 122.549 9.02806 123.887 9.02806C125.408 9.02806 126.443 8.20695 126.443 7.09109C126.443 6.18998 125.872 5.62152 124.705 5.3394L123.733 5.10359C122.958 4.91411 122.608 4.65725 122.608 4.16038C122.608 3.60455 123.205 3.20031 124.006 3.20031C124.884 3.20031 125.246 3.68034 125.421 4.12669L126.324 3.87404Z" fill="white"/>
<path d="M132.593 3.87404C132.278 2.95609 131.571 2.34131 130.275 2.34131C128.895 2.34131 127.872 3.1161 127.872 4.2109C127.872 5.10359 128.409 5.70153 129.611 5.97944L130.701 6.23209C131.362 6.38368 131.673 6.69527 131.673 7.14162C131.673 7.69744 131.076 8.15221 130.139 8.15221C129.317 8.15221 128.801 7.80271 128.622 7.10793L127.667 7.34374C127.902 8.44275 128.818 9.02806 130.156 9.02806C131.677 9.02806 132.713 8.20695 132.713 7.09109C132.713 6.18998 132.142 5.62152 130.974 5.3394L130.003 5.10359C129.227 4.91411 128.878 4.65725 128.878 4.16038C128.878 3.60455 129.474 3.20031 130.275 3.20031C131.153 3.20031 131.515 3.68034 131.69 4.12669L132.593 3.87404Z" fill="white"/>
<path d="M134.227 8.8932H135.232V2.42542H134.227V8.8932ZM134.738 1.34745C135.13 1.34745 135.454 1.04428 135.454 0.673727C135.454 0.303177 135.13 0 134.738 0C134.346 0 134.022 0.303177 134.022 0.673727C134.022 1.04428 134.346 1.34745 134.738 1.34745Z" fill="white"/>
<path d="M139 9.0449C140.142 9.0449 140.739 8.43854 140.943 8.01746H140.994V8.89331H142V4.63198C142 2.57712 140.415 2.34131 139.58 2.34131C138.591 2.34131 137.466 2.67818 136.955 3.8572L137.909 4.19406C138.131 3.72245 138.655 3.21716 139.614 3.21716C140.538 3.21716 140.994 3.7014 140.994 4.53093V4.56461C140.994 5.04464 140.5 5.00253 139.307 5.15412C138.092 5.30992 136.767 5.5752 136.767 7.0574C136.767 8.32064 137.756 9.0449 139 9.0449ZM139.154 8.15221C138.352 8.15221 137.773 7.7985 137.773 7.10793C137.773 6.34999 138.472 6.11418 139.256 6.01313C139.682 5.9626 140.824 5.84469 140.994 5.64258V6.55211C140.994 7.36058 140.347 8.15221 139.154 8.15221Z" fill="white"/>
</svg>

